<svg xmlns="http://www.w3.org/2000/svg" viewBox="0 0 208.92 196.04" width="208.92" height="196.04"><path d="M119 153.4c3.78-1.05 7.16-3 10.62-4.76a124.79 124.79 0 0 0 21-13.66c24-19.31 41.76-43.16 52.31-72.22.27-.75.33-1.62 1.06-2.17 12.29 35.69 3 88.15-41.81 118a104.42 104.42 0 0 1-136.59-18.45C-8.19 121.07-3.86 70.84 11.9 43.74 9.51 54.43 8.27 65 9.08 75.61c1.61 21.28 9.8 38.83 30.15 48.16 18.33 8.4 36.56 7.19 54-3.08 11.92-7 21.47-16.76 30.67-26.89 8.73-9.6 16.89-19.73 26.26-28.74 7.31-7 15.07-13.41 25.12-16.17a33.43 33.43 0 0 1 20.36 1c1.54.54 1.71 1.31 1.36 2.81-3.66 15.62-10.87 29.61-19.71 42.84A209.9 209.9 0 0 1 130.58 145c-3.78 2.92-8 5.14-11.59 8.36-.09.19-.19.32-.38.09z" fill="#293990"></path><path d="M54.9.06c-.18 1.71-1.2 3.06-1.9 4.51-6.57 14.12-10.65 28.86-11.2 44.48-.34 9.53 1.44 18.57 7.1 26.51C54.24 83 61.69 85.23 70.24 82s15.13-9 21.64-14.94c10.37-9.52 19.62-20.16 29.68-30 8-7.81 16.12-15.44 26.17-20.63 13.59-7 25.44-4.84 35.79 6.6a70.14 70.14 0 0 1 7.7 10.12c.32.52 1 1 .59 1.75s-1.07.28-1.62.23c-15.78-1.59-29 4.3-40.87 14-10.32 8.51-18.72 18.74-27.43 28.7-9 10.35-18.09 20.7-29.53 28.57-8.91 6.13-18.69 9.95-29.55 10.27-15.37.46-27.06-6.41-34.83-19.42-9.37-15.7-10.77-32.75-6-50.14 5-18.37 15.32-33.46 30.11-45.46.71-.58 1.46-1.1 2.21-1.62.05-.03.26-.03.6.03z" fill="#f26626"></path><path d="M83.54 44.87A20.14 20.14 0 0 1 63 24.32a20.46 20.46 0 0 1 40.91.33 20.2 20.2 0 0 1-20.37 20.22z" fill="#f26626"></path><style>@media (prefers-color-scheme: light) { :root { filter: none; } }
@media (prefers-color-scheme: dark) { :root { filter: none; } }
</style></svg>